<svg xmlns="http://www.w3.org/2000/svg" version="1.1" xmlns:xlink="http://www.w3.org/1999/xlink" xmlns:svgjs="http://svgjs.com/svgjs" width="512" height="512" x="0" y="0" viewBox="0 0 682.667 682.667" style="enable-background:new 0 0 512 512" xml:space="preserve" class=""><g><defs><clipPath id="a" clipPathUnits="userSpaceOnUse"><path d="M0 512h512V0H0Z" fill="#000000" data-original="#000000"></path></clipPath></defs><g clip-path="url(#a)" transform="matrix(1.33333 0 0 -1.33333 0 682.667)"><path d="M0 0v49.688c0 4.417 3.582 8 8 8h92.791c4.418 0 8-3.583 8-8V0" style="stroke-width:15;stroke-linecap:round;stroke-linejoin:round;stroke-miterlimit:10;stroke-dasharray:none;stroke-opacity:1" transform="translate(121.46 365.435)" fill="none" stroke="#000000" stroke-width="15" stroke-linecap="round" stroke-linejoin="round" stroke-miterlimit="10" stroke-dasharray="none" stroke-opacity="" data-original="#000000" class=""></path><path d="m0 0-4.11 54.16c-.2 2.6.62 5.17 2.29 7.16l30.31 36.32a4.995 4.995 0 0 0 3.84 1.79H174.9c1.48 0 2.89-.65 3.84-1.79l30.31-36.32a9.945 9.945 0 0 0 2.29-7.16l-1.28-16.86" style="stroke-width:15;stroke-linecap:round;stroke-linejoin:round;stroke-miterlimit:10;stroke-dasharray:none;stroke-opacity:1" transform="translate(72.24 266)" fill="none" stroke="#000000" stroke-width="15" stroke-linecap="round" stroke-linejoin="round" stroke-miterlimit="10" stroke-dasharray="none" stroke-opacity="" data-original="#000000" class=""></path><path d="m0 0 12.24-161.189c.39-5.21 4.74-9.241 9.97-9.241h84.64" style="stroke-width:15;stroke-linecap:round;stroke-linejoin:round;stroke-miterlimit:10;stroke-dasharray:none;stroke-opacity:1" transform="translate(74.89 231.05)" fill="none" stroke="#000000" stroke-width="15" stroke-linecap="round" stroke-linejoin="round" stroke-miterlimit="10" stroke-dasharray="none" stroke-opacity="" data-original="#000000" class=""></path><path d="M0 0v30.958a13.64 13.64 0 0 0 5.609 11.026L23.8 55.24a6.908 6.908 0 0 1 2.043 8.802L18.649 77.69a6.904 6.904 0 0 1-8.294 3.332l-79.376-26.459c-3.146-1.047-4.605-4.663-3.07-7.601l4.123-7.893a5.383 5.383 0 0 0 .612-2.493V0" style="stroke-width:15;stroke-linecap:round;stroke-linejoin:round;stroke-miterlimit:10;stroke-dasharray:none;stroke-opacity:1" transform="translate(209.535 423.122)" fill="none" stroke="#000000" stroke-width="15" stroke-linecap="round" stroke-linejoin="round" stroke-miterlimit="10" stroke-dasharray="none" stroke-opacity="" data-original="#000000" class=""></path><path d="M0 0c-5.75-15.15-20.41-25.91-37.57-25.91-22.19 0-40.18 17.99-40.18 40.18 0 17.86 26.02 54.28 36.18 67.82a4.996 4.996 0 0 0 8 0c6.52-8.7 19.59-26.83 28.1-43.42" style="stroke-width:15;stroke-linecap:round;stroke-linejoin:round;stroke-miterlimit:10;stroke-dasharray:none;stroke-opacity:1" transform="translate(334.62 111.87)" fill="none" stroke="#000000" stroke-width="15" stroke-linecap="round" stroke-linejoin="round" stroke-miterlimit="10" stroke-dasharray="none" stroke-opacity="" data-original="#000000" class=""></path><path d="M0 0a2.887 2.887 0 0 1-4.624 0c-5.878-7.832-20.93-28.896-20.93-39.227 0-12.836 10.406-23.241 23.242-23.241S20.93-52.063 20.93-39.227C20.93-28.896 5.877-7.832 0 0Z" style="stroke-width:15;stroke-linecap:round;stroke-linejoin:round;stroke-miterlimit:10;stroke-dasharray:none;stroke-opacity:1" transform="translate(347.846 171.615)" fill="none" stroke="#000000" stroke-width="15" stroke-linecap="round" stroke-linejoin="round" stroke-miterlimit="10" stroke-dasharray="none" stroke-opacity="" data-original="#000000" class=""></path><path d="M0 0v-37.428a5.002 5.002 0 0 0-5.001-5.002h-252.153a5.002 5.002 0 0 0-5.001 5.002v168.777c0 12.327 9.993 22.321 22.322 22.321h217.511C-9.994 153.67 0 143.676 0 131.349V35.001" style="stroke-width:15;stroke-linecap:round;stroke-linejoin:round;stroke-miterlimit:10;stroke-dasharray:none;stroke-opacity:1" transform="translate(443.899 85.34)" fill="none" stroke="#000000" stroke-width="15" stroke-linecap="round" stroke-linejoin="round" stroke-miterlimit="10" stroke-dasharray="none" stroke-opacity="" data-original="#000000" class=""></path><path d="M0 0v49.289c0 8.286-6.718 15.004-15.004 15.004h-141.964c-8.287 0-15.005-6.718-15.005-15.004V0" style="stroke-width:15;stroke-linecap:round;stroke-linejoin:round;stroke-miterlimit:10;stroke-dasharray:none;stroke-opacity:1" transform="translate(398.808 239.01)" fill="none" stroke="#000000" stroke-width="15" stroke-linecap="round" stroke-linejoin="round" stroke-miterlimit="10" stroke-dasharray="none" stroke-opacity="" data-original="#000000" class=""></path><path d="M0 0v-30.409a5.001 5.001 0 0 0-5.001-5.001h-215.558a5.002 5.002 0 0 0-5.002 5.001V0" style="stroke-width:15;stroke-linecap:round;stroke-linejoin:round;stroke-miterlimit:10;stroke-dasharray:none;stroke-opacity:1" transform="translate(425.602 42.91)" fill="none" stroke="#000000" stroke-width="15" stroke-linecap="round" stroke-linejoin="round" stroke-miterlimit="10" stroke-dasharray="none" stroke-opacity="" data-original="#000000" class=""></path></g></g></svg>