<svg xmlns="http://www.w3.org/2000/svg" version="1.1" xmlns:xlink="http://www.w3.org/1999/xlink"
    xmlns:svgjs="http://svgjs.com/svgjs" width="512" height="512" x="0" y="0" viewBox="0 0 128 128"
    style="enable-background:new 0 0 512 512" xml:space="preserve" class="">
    <g>
        <path d="M92 66V19c0-1.1-.9-2-2-2H38c-1.1 0-2 .9-2 2v47c0 1.1.9 2 2 2h52c1.1 0 2-.9 2-2zm-4-2H40V21h48z"
            fill="#000000" data-original="#000000" class=""></path>
        <path
            d="M86 0H42C29.3 0 19 10.3 19 23v58c0 12.7 10.3 23 23 23h8v22c0 1.1.9 2 2 2h24c1.1 0 2-.9 2-2v-22h8c12.7 0 23-10.3 23-23V23c0-12.7-10.3-23-23-23zM74 124H54V88h20zm31-43c0 10.5-8.5 19-19 19h-8V88h4c1.1 0 2-.9 2-2s-.9-2-2-2H46c-1.1 0-2 .9-2 2s.9 2 2 2h4v12h-8c-10.5 0-19-8.5-19-19V23c0-10.5 8.5-19 19-19h44c10.5 0 19 8.5 19 19z"
            fill="#000000" data-original="#000000" class=""></path>
        <path
            d="M64 120c3.3 0 6-2.7 6-6s-2.7-6-6-6-6 2.7-6 6 2.7 6 6 6zm0-8c1.1 0 2 .9 2 2s-.9 2-2 2-2-.9-2-2 .9-2 2-2zM64 58c5.9 0 10.8-4.8 10.8-10.7 0-10.9-9.1-19.4-9.4-19.7-.8-.7-2-.7-2.8.1-.4.4-9.4 9.9-9.4 19.6C53.2 53.2 58.1 58 64 58zm.1-26c2.3 2.7 6.7 8.6 6.7 15.3 0 3.8-3.1 6.8-6.8 6.8-3.8 0-6.8-3-6.8-6.8 0-6.1 4.5-12.5 6.9-15.3z"
            fill="#000000" data-original="#000000" class=""></path>
    </g>
</svg>