<svg xmlns="http://www.w3.org/2000/svg" version="1.1" xmlns:xlink="http://www.w3.org/1999/xlink"
    xmlns:svgjs="http://svgjs.com/svgjs" width="512" height="512" x="0" y="0" viewBox="0 0 64 64"
    style="enable-background:new 0 0 512 512" xml:space="preserve" class="">
    <g>
        <g data-name="Blood Cells">
            <path
                d="M13.794 51.314c-7.3-3.176-11.38-10.029-9.096-15.277 2.282-5.249 10.077-6.937 17.377-3.762 7.299 3.176 11.38 10.029 9.096 15.277-2.284 5.251-10.083 6.935-17.377 3.762zm-7.262-14.48c-1.844 4.238 1.772 9.91 8.06 12.646 6.287 2.734 12.902 1.512 14.745-2.726 1.843-4.237-1.772-9.91-8.06-12.645-6.287-2.734-12.902-1.512-14.745 2.726z"
                fill="#000000" data-original="#000000" class=""></path>
            <path
                d="M15.631 47.089c-4.91-2.136-7.891-6.5-6.71-9.215a1 1 0 0 1 1.835.797c-.555 1.276 1.369 4.712 5.673 6.584 4.438 1.931 8.15.893 8.685-.337a1 1 0 0 1 1.834.796C25.78 48.4 20.626 49.262 15.63 47.09zM34.241 38.64c-1.573-5.191 3.039-10.912 9.92-12.997 7-2.122 13.937.26 15.467 5.305 1.573 5.192-3.04 10.913-9.92 12.998-6.995 2.12-13.937-.256-15.467-5.305zm10.5-11.083c-6.095 1.847-9.753 6.652-8.586 10.504 1.209 3.99 7.028 5.771 12.972 3.97 6.095-1.846 9.754-6.65 8.587-10.503-1.209-3.99-7.028-5.772-12.973-3.97z"
                fill="#000000" data-original="#000000" class=""></path>
            <path
                d="M38.264 37.421a1 1 0 0 1 1.914-.58c.335 1.103 3.604 2.416 7.73 1.167 4.206-1.274 6.116-4.157 5.782-5.26a1 1 0 0 1 1.914-.58c.786 2.594-2.282 6.29-7.116 7.754-4.618 1.398-9.395.232-10.224-2.501zM26.708 28.337c-6.51-.935-11.257-5.527-10.58-10.237.675-4.71 6.518-7.788 13.032-6.847 6.51.934 11.257 5.526 10.581 10.236-.677 4.72-6.54 7.781-13.033 6.848zm-8.6-9.953c-.52 3.619 3.466 7.195 8.884 7.973 5.418.775 10.25-1.534 10.77-5.152.518-3.618-3.467-7.195-8.886-7.973-5.42-.777-10.25 1.534-10.769 5.152z"
                fill="#000000" data-original="#000000" class=""></path>
            <path
                d="M27.24 24.628c-4.372-.627-7.766-3.472-7.403-5.996a1 1 0 0 1 1.98.284c-.144 1 2.037 3.205 5.708 3.732 3.728.533 6.385-.976 6.528-1.976a1 1 0 0 1 1.98.285c-.352 2.453-4.265 4.32-8.793 3.67z"
                fill="#000000" data-original="#000000" class=""></path>
        </g>
    </g>
</svg>