<?xml version="1.0" standalone="no"?>
<!DOCTYPE svg PUBLIC "-//W3C//DTD SVG 20010904//EN"
 "http://www.w3.org/TR/2001/REC-SVG-20010904/DTD/svg10.dtd">
<svg version="1.0" xmlns="http://www.w3.org/2000/svg"
 width="107.000000pt" height="131.000000pt" viewBox="0 0 107.000000 131.000000"
 preserveAspectRatio="xMidYMid meet">

<g transform="translate(0.000000,131.000000) scale(0.100000,-0.100000)"
fill="#000000" stroke="none">
<path d="M460 950 c-35 -35 -21 -90 22 -90 22 0 68 43 68 64 0 21 -28 46 -51
46 -10 0 -28 -9 -39 -20z"/>
<path d="M213 801 c-88 -64 -129 -212 -83 -302 40 -78 82 -75 191 14 40 32 60
43 70 36 23 -15 72 -10 106 10 l31 20 7 -42 c10 -56 60 -107 107 -107 78 0
281 141 265 184 -6 15 -14 12 -59 -22 -29 -22 -67 -47 -85 -56 -41 -20 -97
-21 -117 0 -21 21 -20 53 2 61 64 22 150 71 183 104 31 31 39 47 39 74 0 29
-5 37 -27 46 -79 30 -200 -31 -274 -138 -31 -44 -73 -73 -108 -73 -33 0 -33
16 -1 66 69 109 61 178 -15 128 -35 -23 -95 -108 -109 -153 -13 -46 -99 -123
-131 -119 -17 3 -20 10 -19 46 1 36 7 50 41 85 81 83 112 148 77 161 -30 11
-51 6 -91 -23z m577 -41 c0 -16 -69 -79 -111 -100 l-40 -21 15 29 c31 60 136
131 136 92z"/>
</g>
</svg>
