<svg xmlns="http://www.w3.org/2000/svg" version="1.1" xmlns:xlink="http://www.w3.org/1999/xlink" xmlns:svgjs="http://svgjs.com/svgjs" width="512" height="512" x="0" y="0" viewBox="0 0 512 512" style="enable-background:new 0 0 512 512" xml:space="preserve" class=""><g><path d="M124.983 31.101a7.393 7.393 0 0 0-7.394 7.394v17.894a7.393 7.393 0 0 0 7.394 7.394 7.393 7.393 0 0 0 7.394-7.394V38.495a7.393 7.393 0 0 0-7.394-7.394zM170.28 31.101a7.393 7.393 0 0 0-7.394 7.394v17.894a7.393 7.393 0 0 0 7.394 7.394 7.393 7.393 0 0 0 7.394-7.394V38.495a7.393 7.393 0 0 0-7.394-7.394zM215.578 31.101a7.393 7.393 0 0 0-7.394 7.394v17.894c0 4.084 3.31 7.394 7.394 7.394s7.394-3.31 7.394-7.394V38.495a7.393 7.393 0 0 0-7.394-7.394zM260.874 31.101a7.393 7.393 0 0 0-7.394 7.394v17.894c0 4.084 3.31 7.394 7.394 7.394s7.394-3.31 7.394-7.394V38.495a7.393 7.393 0 0 0-7.394-7.394zM306.172 31.101a7.393 7.393 0 0 0-7.394 7.394v17.894a7.393 7.393 0 0 0 7.394 7.394 7.393 7.393 0 0 0 7.394-7.394V38.495a7.393 7.393 0 0 0-7.394-7.394z" fill="#000000" data-original="#000000"></path><path d="M450.889 276.296c-12.089-12.088-28.16-18.745-45.255-18.745a64.3 64.3 0 0 0-16.876 2.255v-78.863c0-15.202-8.12-29.468-21.192-37.229l-44.048-26.157V94.884h12.621c12.553 0 22.765-10.212 22.765-22.764V22.765C358.904 10.212 348.692 0 336.139 0H95.015C82.463 0 72.251 10.212 72.251 22.765V72.12c0 12.552 10.212 22.764 22.765 22.764h12.621v22.674l-44.048 26.157c-13.072 7.762-21.192 22.027-21.192 37.229v291.332c0 21.904 17.82 39.724 39.724 39.724h266.912c21.904 0 39.724-17.82 39.724-39.724v-43.339l62.132-62.131c24.952-24.953 24.952-65.556 0-90.51zM95.015 80.096v-.001c-4.398 0-7.977-3.578-7.977-7.976V22.765c0-4.398 3.579-7.977 7.977-7.977h241.123c4.398 0 7.977 3.578 7.977 7.977V72.12c0 4.398-3.579 7.976-7.977 7.976H95.015zM308.73 94.884v19.489H122.425V94.884H308.73zM82.121 497.21v.002c-13.749 0-24.936-11.186-24.936-24.936v-57.81h124.148c15.323 0 27.789-12.466 27.789-27.789V242.209c0-15.323-12.466-27.789-27.789-27.789h-63.658a7.394 7.394 0 0 0 0 14.788h63.658c7.169 0 13.001 5.832 13.001 13.001v144.467c0 7.169-5.832 13.001-13.001 13.001H57.185v-170.47h25.984a7.394 7.394 0 0 0 0-14.788H57.185v-33.476c0-10.01 5.347-19.403 13.953-24.514l45.922-27.269h197.034l45.922 27.269c8.607 5.111 13.953 14.504 13.953 24.514v84.978a64.302 64.302 0 0 0-13.59 10.374l-126.45 126.449c-24.952 24.954-24.952 65.556 0 90.509a64.94 64.94 0 0 0 4.345 3.957H82.121zm291.848-24.934c0 13.75-11.186 24.936-24.936 24.936h-28.938a64.925 64.925 0 0 0 4.344-3.957l49.53-49.53v28.551zm66.462-115.927-57.983 57.983-34.258-34.258a7.395 7.395 0 0 0-10.458 10.457l34.259 34.259-58.009 58.009c-9.295 9.295-21.652 14.414-34.797 14.414-13.145 0-25.503-5.119-34.798-14.414h.001c-19.187-19.188-19.187-50.408 0-69.596l58.009-58.009 10.443 10.443a7.373 7.373 0 0 0 5.229 2.166 7.395 7.395 0 0 0 5.229-12.623l-10.444-10.444 57.983-57.983a49.253 49.253 0 0 1 13.36-9.517c.244-.101.481-.214.711-.34 6.41-2.98 13.446-4.556 20.726-4.556 13.145 0 25.503 5.119 34.797 14.414 19.187 19.187 19.187 50.407 0 69.595z" fill="#000000" data-original="#000000"></path></g></svg>