<svg xmlns="http://www.w3.org/2000/svg" version="1.1" xmlns:xlink="http://www.w3.org/1999/xlink" xmlns:svgjs="http://svgjs.com/svgjs" width="512" height="512" x="0" y="0" viewBox="0 0 682.667 682.667" style="enable-background:new 0 0 512 512" xml:space="preserve" class=""><g><defs><clipPath id="a" clipPathUnits="userSpaceOnUse"><path d="M0 512h512V0H0Z" fill="#000000" data-original="#000000"></path></clipPath></defs><g clip-path="url(#a)" transform="matrix(1.33333 0 0 -1.33333 0 682.667)"><path d="M0 0c24.801-18.916 39-48.538 39-79.729V-248c0-55.229-44.771-100-100-100h-272c-55.229 0-100 44.771-100 100v168.271A99.998 99.998 0 0 0-393.645-.217l136 103.729c35.816 27.317 85.474 27.317 121.29 0L-61 46.089V112" style="stroke-width:40;stroke-linecap:round;stroke-linejoin:round;stroke-miterlimit:10;stroke-dasharray:none;stroke-opacity:1" transform="translate(453 368)" fill="none" stroke="#000000" stroke-width="40" stroke-linecap="round" stroke-linejoin="round" stroke-miterlimit="10" stroke-dasharray="none" stroke-opacity="" data-original="#000000" class=""></path><path d="M0 0c-13.807 0-25-11.193-25-25s11.193-25 25-25 25 11.193 25 25S13.807 0 0 0" style="fill-opacity:1;fill-rule:nonzero;stroke:none" transform="translate(216 281)" fill="#000000" data-original="#000000"></path><path d="M0 0c-13.807 0-25-11.193-25-25s11.193-25 25-25 25 11.193 25 25S13.807 0 0 0" style="fill-opacity:1;fill-rule:nonzero;stroke:none" transform="translate(296 281)" fill="#000000" data-original="#000000"></path><path d="M0 0c-13.807 0-25-11.193-25-25s11.193-25 25-25 25 11.193 25 25S13.807 0 0 0" style="fill-opacity:1;fill-rule:nonzero;stroke:none" transform="translate(216 201)" fill="#000000" data-original="#000000"></path><path d="M0 0c-13.807 0-25-11.193-25-25s11.193-25 25-25 25 11.193 25 25S13.807 0 0 0" style="fill-opacity:1;fill-rule:nonzero;stroke:none" transform="translate(296 201)" fill="#000000" data-original="#000000"></path></g></g></svg>