<svg xmlns="http://www.w3.org/2000/svg" version="1.1" xmlns:xlink="http://www.w3.org/1999/xlink"
    xmlns:svgjs="http://svgjs.com/svgjs" width="512" height="512" x="0" y="0" viewBox="0 0 512 512"
    style="enable-background:new 0 0 512 512" xml:space="preserve" class="">
    <g>
        <path
            d="M245.333 181.333v35.28c-6.258 3.724-10.667 10.262-10.667 18.053 0 11.76 9.573 21.333 21.333 21.333s21.333-9.573 21.333-21.333c0-7.792-4.409-14.329-10.667-18.053v-35.28c0-5.896-4.771-10.667-10.667-10.667s-10.665 4.772-10.665 10.667z"
            fill="#000000" data-original="#000000"></path>
        <path
            d="M437.333 0c-41.865 0-74.667 37.479-74.667 85.333 0 34.341 25.902 95.176 64 105.121v204.212c0 52.938-43.063 96-96 96-50.943 0-92.335-39.995-95.411-90.176 33.447-4.255 63.411-12.215 63.411-27.158V332.29c37.604-16.507 64-53.997 64-97.625s-26.396-81.119-64-97.625V74.667c0-30.458-124.396-32-149.333-32S0 44.208 0 74.667v298.667c0 30.458 124.396 32 149.333 32 10.102 0 36.546-.289 64.408-2.615C217.91 463.66 268.686 512 330.667 512 395.365 512 448 459.365 448 394.667V190.454c38.098-9.945 64-70.78 64-105.121C512 37.479 479.198 0 437.333 0zm-96 234.667C341.333 281.719 303.052 320 256 320s-85.333-38.281-85.333-85.333 38.281-85.333 85.333-85.333 85.333 38.281 85.333 85.333zM149.333 64C200 64 244.24 69.375 265.885 74.667 244.24 79.958 200 85.333 149.333 85.333S54.427 79.958 32.781 74.666C54.427 69.375 98.667 64 149.333 64zM64 378.763c-21.285-2.776-36.755-6.197-42.667-9.138V92.988C32.91 97.033 48.035 99.897 64 101.905v276.858zM149.333 384c-23.214 0-45.039-1.138-64-2.87V104.086c27.711 2.294 53.948 2.581 64 2.581 18.464 0 91.349-.878 128-13.678v37.168A106.603 106.603 0 0 0 256 128c-58.813 0-106.667 47.854-106.667 106.667S197.188 341.333 256 341.333c7.305 0 14.438-.75 21.333-2.156v30.448c-12.291 6.115-65.208 14.375-128 14.375zm288-213.333c-26.979 0-53.333-53.99-53.333-85.333 0-35.885 23.427-64 53.333-64s53.333 28.115 53.333 64c.001 31.343-26.353 85.333-53.333 85.333z"
            fill="#000000" data-original="#000000"></path>
    </g>
</svg>