<svg xmlns="http://www.w3.org/2000/svg" version="1.1" xmlns:xlink="http://www.w3.org/1999/xlink"
    xmlns:svgjs="http://svgjs.com/svgjs" width="512" height="512" x="0" y="0" viewBox="0 0 32 32"
    style="enable-background:new 0 0 512 512" xml:space="preserve" class="">
    <g>
        <path
            d="M6 31h20c1.654 0 3-1.346 3-3V14.357c0-1.654-1.346-3-3-3h-1V10c0-4.962-4.038-9-9-9s-9 4.038-9 9v1.357H6c-1.654 0-3 1.346-3 3V28c0 1.654 1.346 3 3 3zm4.311-2a5.767 5.767 0 0 1 3.826-4.443A4.24 4.24 0 0 0 16 25a4.24 4.24 0 0 0 1.87-.448 5.73 5.73 0 0 1 2.213 1.365A5.736 5.736 0 0 1 21.682 29zm3.397-8.291c0-1.264 1.028-2.292 2.292-2.292s2.292 1.028 2.292 2.291C18.291 21.973 17.264 23 16 23s-2.292-1.028-2.292-2.292zM9 10c0-3.86 3.14-7 7-7s7 3.14 7 7v1.357H9zm-4 4.357c0-.551.449-1 1-1h20c.551 0 1 .449 1 1V28c0 .551-.449 1-1 1h-2.292a7.72 7.72 0 0 0-2.21-4.497 7.747 7.747 0 0 0-1.94-1.397c.463-.685.733-1.51.733-2.398 0-2.366-1.925-4.29-4.291-4.29s-4.292 1.924-4.292 4.29c0 .89.273 1.716.738 2.402A7.765 7.765 0 0 0 8.303 29H6c-.551 0-1-.449-1-1z"
            fill="#000000" data-original="#000000" class=""></path>
    </g>
</svg>