<svg xmlns="http://www.w3.org/2000/svg" version="1.1" xmlns:xlink="http://www.w3.org/1999/xlink" xmlns:svgjs="http://svgjs.com/svgjs" width="512" height="512" x="0" y="0" viewBox="0 0 512.002 512.002" style="enable-background:new 0 0 512 512" xml:space="preserve" class=""><g><path d="M424.772 236.141a7.499 7.499 0 0 0-7.5 7.5V383.78c0 62.431-50.791 113.222-113.223 113.222H269.31c-62.432 0-113.223-50.791-113.223-113.221l.002-34.404a7.5 7.5 0 0 0-7.5-7.5 7.5 7.5 0 0 0-7.5 7.499l-.002 34.404c0 70.702 57.521 128.222 128.223 128.222h34.739c70.702 0 128.223-57.52 128.223-128.223V243.64a7.5 7.5 0 0 0-7.5-7.499z" fill="#000000" data-original="#000000" class=""></path><path d="M398.923 236.911a7.499 7.499 0 0 0-7.5 7.5V383.78c0 48.177-39.195 87.371-87.372 87.371h-34.74c-48.178 0-87.373-39.203-87.373-87.393l-.038-94.737c31.039-6.199 57.767-26.592 71.919-55.055 3.192-6.419 2.836-13.903-.953-20.02a20.986 20.986 0 0 0-4.03-4.746c.306-1.268.596-2.543.846-3.834L282.741 75.71c.037-.146.069-.292.098-.44 4.014-20.917-9.054-41.25-29.749-46.289l-10.305-2.509c-1.372-5.626-5.052-11.114-10.807-15.943-6.666-5.595-15.136-9.457-22.659-10.331-16.088-1.871-30.705 9.699-32.577 25.793-1.869 16.093 9.701 30.707 25.793 32.576a33.37 33.37 0 0 0 3.853.216c6.653 0 14.086-1.806 20.572-5.074 6.384-3.217 11.072-7.448 13.775-12.298l8.805 2.144c12.848 3.128 20.984 15.699 18.606 28.68l-33.053 129.64c-.037.146-.07.292-.098.44-.117.608-.248 1.209-.378 1.81-7.585.219-14.557 4.598-17.876 11.303-10.264 20.728-31.819 34.119-54.914 34.119-23.27 0-44.24-12.931-54.726-33.746-3.473-6.896-10.482-11.41-18.061-11.672a77.819 77.819 0 0 1-.379-1.815 6.645 6.645 0 0 0-.098-.44L55.507 72.237c-2.379-12.981 5.758-25.552 18.605-28.68l8.782-2.138c6.219 11.242 22.201 17.36 34.453 17.36 1.303 0 2.568-.069 3.772-.21 16.092-1.87 27.662-16.484 25.793-32.577C145.041 9.9 130.439-1.668 114.334.2c-7.524.875-15.994 4.736-22.661 10.331-5.754 4.829-9.434 10.317-10.806 15.943l-10.304 2.508C49.869 34.02 36.8 54.353 40.814 75.271c.028.148.061.294.098.44l33.059 129.657c.25 1.289.539 2.564.845 3.831a20.942 20.942 0 0 0-4.133 4.918c-3.69 6.082-4.007 13.503-.848 19.848 14.052 28.262 40.499 48.568 71.258 54.923l-.002 25.739a7.5 7.5 0 0 0 7.499 7.5h.001a7.5 7.5 0 0 0 7.5-7.499l.002-29.505c0-5.133-3.675-9.474-8.737-10.321-27.639-4.628-51.597-22.389-64.09-47.516-.867-1.742-.778-3.706.244-5.389 1.036-1.71 2.836-2.753 4.747-2.79l.163-.002c2.122 0 4.245 1.384 5.284 3.446 13.052 25.905 39.156 41.998 68.123 41.998 28.751 0 55.582-16.668 68.356-42.463.883-1.783 2.902-2.98 5.025-2.98 2.04 0 3.83.999 4.908 2.742 1.05 1.696 1.15 3.678.272 5.441-12.457 25.053-36.317 42.785-63.858 47.473l-.231.023a10.44 10.44 0 0 0-9.402 10.415l.04 98.563c0 56.459 45.925 102.391 102.373 102.391h34.74c56.449 0 102.372-45.924 102.372-102.372V244.411a7.499 7.499 0 0 0-7.499-7.5zM228.363 31.992c-.325 2.805-3.373 5.915-8.152 8.324-5.099 2.569-11.356 3.887-15.943 3.354-7.877-.915-13.54-8.069-12.625-15.945.85-7.316 7.08-12.722 14.274-12.722.552 0 1.11.032 1.67.097 4.585.533 10.374 3.25 14.749 6.922 4.1 3.439 6.353 7.167 6.027 9.97zM116.065 15.099c7.867-.906 15.031 4.748 15.945 12.624.915 7.878-4.748 15.031-12.625 15.946-9.645 1.117-23.382-5.537-24.096-11.678-.714-6.14 11.13-15.77 20.776-16.892z" fill="#000000" data-original="#000000" class=""></path><path d="M410.287 96.867c-33.981 0-61.625 27.645-61.625 61.625 0 33.98 27.645 61.625 61.625 61.625 33.98 0 61.625-27.645 61.625-61.625s-27.645-61.625-61.625-61.625zm0 108.249c-25.709 0-46.625-20.916-46.625-46.625s20.916-46.625 46.625-46.625 46.625 20.915 46.625 46.625-20.917 46.625-46.625 46.625z" fill="#000000" data-original="#000000" class=""></path><path d="M410.287 129.905c-15.762 0-28.587 12.824-28.587 28.586s12.824 28.586 28.587 28.586 28.586-12.824 28.586-28.586-12.824-28.586-28.586-28.586zm0 42.173c-7.492 0-13.586-6.095-13.586-13.586 0-7.491 6.095-13.585 13.586-13.585 7.491 0 13.586 6.095 13.586 13.585-.001 7.491-6.095 13.586-13.586 13.586z" fill="#000000" data-original="#000000" class=""></path></g></svg>