<svg xmlns="http://www.w3.org/2000/svg" version="1.1" xmlns:xlink="http://www.w3.org/1999/xlink" xmlns:svgjs="http://svgjs.com/svgjs" width="512" height="512" x="0" y="0" viewBox="0 0 512 512" style="enable-background:new 0 0 512 512" xml:space="preserve" class=""><g><path d="M169.365 29.742a7.502 7.502 0 0 0-7.502 7.502v17.112a7.502 7.502 0 0 0 15.004 0V37.244a7.502 7.502 0 0 0-7.502-7.502zM212.682 29.742a7.502 7.502 0 0 0-7.502 7.502v17.112a7.502 7.502 0 0 0 15.004 0V37.244a7.502 7.502 0 0 0-7.502-7.502zM256 29.742a7.502 7.502 0 0 0-7.502 7.502v17.112a7.502 7.502 0 0 0 15.004 0V37.244A7.502 7.502 0 0 0 256 29.742zM299.318 29.742a7.502 7.502 0 0 0-7.502 7.502v17.112a7.502 7.502 0 0 0 15.004 0V37.244a7.502 7.502 0 0 0-7.502-7.502zM342.635 29.742a7.502 7.502 0 0 0-7.502 7.502v17.112a7.502 7.502 0 0 0 15.004 0V37.244a7.502 7.502 0 0 0-7.502-7.502zM330.603 298.017h-47.572v-47.571c0-5.889-4.791-10.68-10.68-10.68h-32.702c-5.889 0-10.68 4.791-10.68 10.68v47.571h-47.572c-5.888 0-10.679 4.791-10.679 10.68v32.702c0 5.889 4.791 10.68 10.679 10.68h47.572v47.571c0 5.889 4.791 10.68 10.68 10.68h32.702c5.889 0 10.68-4.791 10.68-10.68v-47.571h47.572c5.888 0 10.679-4.791 10.679-10.68v-32.702c0-5.889-4.791-10.68-10.679-10.68zm-4.325 39.057h-50.749a7.502 7.502 0 0 0-7.502 7.502v50.749h-24.053v-50.749a7.502 7.502 0 0 0-7.502-7.502h-50.749v-24.053h50.749a7.502 7.502 0 0 0 7.502-7.502V254.77h24.053v50.749a7.502 7.502 0 0 0 7.502 7.502h50.749v24.053z" fill="#000000" data-original="#000000" class=""></path><path d="m401.473 147.688-36.653-32.995V91.599h6.472c12.241 0 22.201-9.959 22.201-22.201V22.201C393.493 9.959 383.533 0 371.292 0H140.708c-12.241 0-22.201 9.959-22.201 22.201v47.197c0 12.241 9.959 22.201 22.201 22.201h6.472v23.094l-36.653 32.995a62.247 62.247 0 0 0-20.569 46.194v279.699c0 21.184 17.235 38.419 38.419 38.419h255.246c21.184 0 38.419-17.234 38.419-38.419V193.882a62.247 62.247 0 0 0-20.569-46.194zM140.708 76.594c-3.968.001-7.196-3.227-7.196-7.195V22.201c0-3.968 3.228-7.197 7.196-7.197h230.584c3.968 0 7.196 3.228 7.196 7.197v47.197c0 3.968-3.228 7.196-7.196 7.196H140.708zm209.108 15.005v18.933H162.184V91.599h187.632zm57.222 341.833H361.78a7.502 7.502 0 0 0 0 15.004h45.258v25.145c0 12.911-10.504 23.414-23.415 23.414H128.377c-12.911 0-23.415-10.503-23.415-23.414v-25.145h221.391a7.502 7.502 0 0 0 0-15.004H104.962V211.831h45.258a7.502 7.502 0 0 0 0-15.004h-45.258v-2.945a47.217 47.217 0 0 1 15.604-35.042l36.995-33.304h196.877l36.995 33.304a47.218 47.218 0 0 1 15.604 35.042v2.945H185.48a7.502 7.502 0 0 0 0 15.004h221.558v221.601z" fill="#000000" data-original="#000000" class=""></path></g></svg>